<svg xmlns="http://www.w3.org/2000/svg" width="582" height="582" viewBox="0 0 512 512" version="1.1"><path d="M 286.500 35.085 C 283.325 36.932, 282 39.139, 282 42.580 C 282 48.581, 284.388 50.092, 296.308 51.633 C 314.045 53.927, 325.943 59.523, 338.380 71.422 C 343.672 76.484, 345.936 78, 348.205 78 C 351.872 78, 357 73.175, 357 69.725 C 357 60.441, 331.557 42.098, 311.648 37.029 C 301.629 34.478, 289.196 33.517, 286.500 35.085 M 243 198.429 C 218.190 205.319, 201.983 229.900, 205.850 254.776 C 209.712 279.616, 231.093 298, 256.120 298 C 262.431 298, 263.116 297.767, 267.897 293.987 C 277.806 286.154, 286.312 272.463, 288.887 260.201 C 290.480 252.617, 290.260 239.796, 288.415 232.644 C 285.250 220.379, 276.221 206.795, 266.600 199.825 C 263.096 197.287, 261.928 197.009, 255.100 197.089 C 250.920 197.139, 245.475 197.741, 243 198.429 M 113.865 446.982 L 110.883 449.963 111.192 469.956 C 111.489 489.225, 111.583 490.031, 113.778 492.225 L 116.055 494.500 253.278 494.795 C 349.690 495.003, 391.614 494.769, 394.244 494.007 C 400.592 492.170, 401.169 489.871, 400.810 467.845 L 400.500 448.823 397.694 446.411 L 394.888 444 255.867 444 L 116.846 444 113.865 446.982 M 143.284 460.643 C 142.065 460.911, 139.888 462.533, 138.446 464.247 C 135.253 468.041, 135.666 472.328, 139.555 475.750 C 141.720 477.655, 143.258 478, 149.601 478 C 156.220 478, 157.376 477.715, 159.545 475.545 C 162.913 472.178, 162.936 466.228, 159.594 463.088 C 157.788 461.392, 155.729 460.744, 151.344 460.492 C 148.130 460.308, 144.503 460.376, 143.284 460.643 M 185.295 461.049 C 179.787 462.742, 177.475 468.268, 180.163 473.316 C 182.201 477.141, 184.231 477.935, 192.061 477.968 C 198.303 477.994, 200.003 477.646, 201.799 475.972 C 206.017 472.043, 205.899 465.290, 201.562 462.448 C 198.588 460.500, 189.599 459.727, 185.295 461.049 M 228.270 460.645 C 222.336 461.945, 219.995 471.086, 224.455 475.545 C 226.624 477.715, 227.780 478, 234.399 478 C 240.742 478, 242.280 477.655, 244.445 475.750 C 248.460 472.217, 248.789 467.915, 245.340 464.054 C 242.828 461.243, 241.753 460.812, 236.490 460.505 C 233.196 460.314, 229.496 460.377, 228.270 460.645 M 271.284 460.643 C 270.065 460.911, 267.888 462.533, 266.446 464.247 C 263.253 468.041, 263.666 472.328, 267.555 475.750 C 269.720 477.655, 271.258 478, 277.601 478 C 284.220 478, 285.376 477.715, 287.545 475.545 C 290.913 472.178, 290.936 466.228, 287.594 463.088 C 285.788 461.392, 283.729 460.744, 279.344 460.492 C 276.130 460.308, 272.503 460.376, 271.284 460.643 M 313.295 461.049 C 307.787 462.742, 305.475 468.268, 308.163 473.316 C 310.201 477.141, 312.231 477.935, 320.061 477.968 C 326.303 477.994, 328.003 477.646, 329.799 475.972 C 334.017 472.043, 333.899 465.290, 329.562 462.448 C 326.588 460.500, 317.599 459.727, 313.295 461.049 M 356.270 460.645 C 350.336 461.945, 347.995 471.086, 352.455 475.545 C 354.624 477.715, 355.780 478, 362.399 478 C 368.742 478, 370.280 477.655, 372.445 475.750 C 376.460 472.217, 376.789 467.915, 373.340 464.054 C 370.828 461.243, 369.753 460.812, 364.490 460.505 C 361.196 460.314, 357.496 460.377, 356.270 460.645" stroke="none" fill="#f5f5f5" fill-rule="evenodd"/><path d="M 286.500 35.085 C 283.325 36.932, 282 39.139, 282 42.580 C 282 48.581, 284.388 50.092, 296.308 51.633 C 314.045 53.927, 325.943 59.523, 338.380 71.422 C 343.672 76.484, 345.936 78, 348.205 78 C 351.872 78, 357 73.175, 357 69.725 C 357 60.441, 331.557 42.098, 311.648 37.029 C 301.629 34.478, 289.196 33.517, 286.500 35.085 M 243 198.429 C 218.190 205.319, 201.983 229.900, 205.850 254.776 C 209.712 279.616, 231.093 298, 256.120 298 C 262.431 298, 263.116 297.767, 267.897 293.987 C 277.806 286.154, 286.312 272.463, 288.887 260.201 C 290.480 252.617, 290.260 239.796, 288.415 232.644 C 285.250 220.379, 276.221 206.795, 266.600 199.825 C 263.096 197.287, 261.928 197.009, 255.100 197.089 C 250.920 197.139, 245.475 197.741, 243 198.429 M 113.865 446.982 L 110.883 449.963 111.192 469.956 C 111.489 489.225, 111.583 490.031, 113.778 492.225 L 116.055 494.500 253.278 494.795 C 349.690 495.003, 391.614 494.769, 394.244 494.007 C 400.592 492.170, 401.169 489.871, 400.810 467.845 L 400.500 448.823 397.694 446.411 L 394.888 444 255.867 444 L 116.846 444 113.865 446.982 M 143.284 460.643 C 142.065 460.911, 139.888 462.533, 138.446 464.247 C 135.253 468.041, 135.666 472.328, 139.555 475.750 C 141.720 477.655, 143.258 478, 149.601 478 C 156.220 478, 157.376 477.715, 159.545 475.545 C 162.913 472.178, 162.936 466.228, 159.594 463.088 C 157.788 461.392, 155.729 460.744, 151.344 460.492 C 148.130 460.308, 144.503 460.376, 143.284 460.643 M 185.295 461.049 C 179.787 462.742, 177.475 468.268, 180.163 473.316 C 182.201 477.141, 184.231 477.935, 192.061 477.968 C 198.303 477.994, 200.003 477.646, 201.799 475.972 C 206.017 472.043, 205.899 465.290, 201.562 462.448 C 198.588 460.500, 189.599 459.727, 185.295 461.049 M 228.270 460.645 C 222.336 461.945, 219.995 471.086, 224.455 475.545 C 226.624 477.715, 227.780 478, 234.399 478 C 240.742 478, 242.280 477.655, 244.445 475.750 C 248.460 472.217, 248.789 467.915, 245.340 464.054 C 242.828 461.243, 241.753 460.812, 236.490 460.505 C 233.196 460.314, 229.496 460.377, 228.270 460.645 M 271.284 460.643 C 270.065 460.911, 267.888 462.533, 266.446 464.247 C 263.253 468.041, 263.666 472.328, 267.555 475.750 C 269.720 477.655, 271.258 478, 277.601 478 C 284.220 478, 285.376 477.715, 287.545 475.545 C 290.913 472.178, 290.936 466.228, 287.594 463.088 C 285.788 461.392, 283.729 460.744, 279.344 460.492 C 276.130 460.308, 272.503 460.376, 271.284 460.643 M 313.295 461.049 C 307.787 462.742, 305.475 468.268, 308.163 473.316 C 310.201 477.141, 312.231 477.935, 320.061 477.968 C 326.303 477.994, 328.003 477.646, 329.799 475.972 C 334.017 472.043, 333.899 465.290, 329.562 462.448 C 326.588 460.500, 317.599 459.727, 313.295 461.049 M 356.270 460.645 C 350.336 461.945, 347.995 471.086, 352.455 475.545 C 354.624 477.715, 355.780 478, 362.399 478 C 368.742 478, 370.280 477.655, 372.445 475.750 C 376.460 472.217, 376.789 467.915, 373.340 464.054 C 370.828 461.243, 369.753 460.812, 364.490 460.505 C 361.196 460.314, 357.496 460.377, 356.270 460.645" stroke="none" fill="#f5f5f5" fill-rule="evenodd"/><path d="M 240 316.603 C 215.784 319.549, 197.453 325.561, 183 335.297 C 176.226 339.860, 166 348.994, 166 350.481 C 166 352.479, 180.706 365.873, 189.020 371.447 C 236.399 403.213, 297.798 397.803, 338.967 358.235 C 342.835 354.517, 346 350.940, 346 350.286 C 346 348.465, 333.150 338.072, 324.292 332.728 C 314.852 327.034, 300.055 321.543, 287 318.890 C 277.764 317.014, 248.378 315.583, 240 316.603" stroke="none" fill="#ffdc00" fill-rule="evenodd"/><path d="M 274 18.528 C 243.291 23.348, 215.585 42.855, 200.518 70.266 C 198.583 73.786, 197.300 76.967, 197.667 77.333 C 198.033 77.700, 199.431 78, 200.772 78 C 208.780 78, 232.189 87.783, 238.750 93.871 C 242.913 97.734, 243.234 102.857, 239.545 106.545 C 236.009 110.082, 232.152 109.701, 225.059 105.116 C 197.045 87.010, 160.212 91.553, 137.750 115.885 C 134.588 119.311, 132 122.473, 132 122.912 C 132 123.351, 135.211 124.896, 139.135 126.344 C 148.480 129.795, 158.359 135.370, 160.939 138.650 C 163.733 142.202, 163.578 146.513, 160.545 149.545 C 156.927 153.164, 153.291 152.659, 142.775 147.077 C 127.364 138.897, 121.377 137.495, 102 137.528 C 85.931 137.556, 85.245 137.644, 75.756 140.903 C 58.948 146.674, 44.099 157.341, 34.222 170.737 C 2.473 213.801, 16.814 274.194, 64.500 298.245 C 67.250 299.632, 73.325 302.009, 78 303.527 C 85.723 306.035, 88.228 306.331, 105.404 306.767 C 123.104 307.217, 124.266 307.136, 123.638 305.498 C 119.905 295.770, 118.749 265.916, 121.488 249.980 C 129.997 200.480, 165.488 159.349, 213.349 143.521 C 227.311 138.904, 239.765 137, 256 137 C 272.233 137, 284.688 138.904, 298.644 143.519 C 346.503 159.346, 382.004 200.486, 390.512 249.980 C 393.233 265.813, 392.097 295.767, 388.410 305.375 C 387.851 306.831, 389.360 307, 402.935 307 C 420.044 307, 429.329 305.503, 440.954 300.869 C 466.121 290.836, 485.022 269.257, 492.078 242.500 C 494.880 231.871, 495.122 214.637, 492.621 203.689 C 486.672 177.648, 470.362 157.016, 446.612 145.487 C 432.744 138.756, 422.530 136.681, 406 137.236 C 394.155 137.633, 391.336 138.082, 383 140.895 C 377.775 142.659, 370.496 145.879, 366.825 148.051 C 363.154 150.223, 358.851 152, 357.264 152 C 351.521 152, 347.354 145.031, 350.130 140.069 C 353.101 134.758, 371.007 125.667, 385.250 122.238 L 392 120.613 392 114.917 C 392 107.716, 389.664 95.303, 386.632 86.390 C 376.077 55.362, 350.862 31.239, 318.964 21.651 C 303.473 16.994, 289.816 16.045, 274 18.528 M 286.500 35.085 C 283.325 36.932, 282 39.139, 282 42.580 C 282 48.581, 284.388 50.092, 296.308 51.633 C 314.045 53.927, 325.943 59.523, 338.380 71.422 C 343.672 76.484, 345.936 78, 348.205 78 C 351.872 78, 357 73.175, 357 69.725 C 357 60.441, 331.557 42.098, 311.648 37.029 C 301.629 34.478, 289.196 33.517, 286.500 35.085" stroke="none" fill="#00bcd4" fill-rule="evenodd"/><path d="M 235.235 155.497 C 210.331 160.012, 188 171.958, 170.481 190.140 C 147.962 213.510, 137 240.615, 137 272.925 C 137 292.483, 140.408 307.685, 148.561 324.500 C 154.951 337.677, 153.966 337.148, 160.668 331.004 C 173.747 319.011, 193.364 308.624, 211.596 304.036 L 215.693 303.006 207.592 294.753 C 194.765 281.685, 189.232 269.119, 188.283 250.903 C 187.621 238.197, 189.393 228.775, 194.396 218.398 C 202.889 200.783, 216.945 188.448, 235.500 182.327 C 246.703 178.631, 263.923 178.421, 275 181.845 C 293.810 187.659, 308.174 199.766, 316.962 217.213 C 322.489 228.186, 324.403 237.731, 323.717 250.903 C 322.774 269.010, 317.263 281.576, 304.477 294.767 L 296.454 303.045 300.477 304.057 C 307.495 305.822, 319.306 310.136, 325.071 313.041 C 333.059 317.066, 347.912 327.222, 351.946 331.416 C 353.842 333.387, 355.975 335, 356.686 335 C 358.469 335, 366.199 319.282, 369.389 309.171 C 380.321 274.522, 375.213 237.084, 355.513 207.477 C 337.326 180.142, 308.194 161.055, 276.129 155.463 C 265.916 153.682, 245.153 153.700, 235.235 155.497" stroke="none" fill="#e91e63" fill-rule="evenodd"/><path d="M 272.500 1.045 C 254.730 3.794, 232.563 13.148, 218.238 23.942 C 202.958 35.455, 189.806 51.602, 181.813 68.659 C 178.594 75.527, 177.438 77.083, 175.206 77.548 C 159.372 80.850, 149.838 84.640, 139.200 91.864 C 131.655 96.988, 121.601 107.089, 117.026 114.143 L 113.551 119.500 100.526 119.577 C 90.878 119.635, 85.296 120.199, 79 121.752 C 39.003 131.621, 9.682 162.319, 1.451 202.943 C -1.083 215.449, -0.164 237.281, 3.402 249.284 C 12.235 279.023, 31.940 302.198, 59.291 315.015 C 74.972 322.363, 89.371 324.951, 115 325.026 L 129.500 325.069 133 332.739 C 144.649 358.270, 170.395 384.060, 196.741 396.591 C 210.671 403.216, 225.742 407.550, 241.750 409.536 L 247 410.188 247 418.094 L 247 426 182.182 426 C 108.354 426, 110.323 425.812, 101.924 433.668 C 94.095 440.991, 93.492 443.604, 93.545 470 C 93.583 489.007, 93.854 493.076, 95.293 496.213 C 97.914 501.927, 102.976 507.080, 108.493 509.649 L 113.500 511.980 256 511.980 L 398.500 511.980 403.507 509.649 C 409.015 507.084, 414.072 501.942, 416.721 496.213 C 418.183 493.052, 418.443 489.083, 418.469 469.500 C 418.498 448.095, 418.353 446.188, 416.376 442 C 413.645 436.216, 408.681 431.240, 403 428.595 C 398.594 426.544, 397.113 426.494, 331.750 426.223 L 265 425.945 265 418.045 L 265 410.144 270.750 409.465 C 285.810 407.687, 301.024 403.327, 314.670 396.880 C 341.425 384.238, 367.251 358.488, 379 332.739 L 382.500 325.069 397 325.026 C 422.547 324.951, 436.820 322.378, 452.727 314.978 C 481.881 301.417, 503.622 274.164, 509.922 243.285 C 510.843 238.766, 511.913 234.754, 512.299 234.368 C 513.270 233.397, 513.187 206.767, 512.214 207.368 C 511.782 207.635, 510.874 204.929, 510.195 201.354 C 501.886 157.552, 463.287 123.330, 417.750 119.394 L 410 118.724 409.994 115.112 C 409.983 108.469, 407.151 92.581, 404.447 83.996 C 398.225 64.239, 389.291 49.911, 373.584 34.500 C 356.708 17.942, 341.600 9.436, 318.230 3.334 C 310.402 1.291, 305.567 0.728, 293.500 0.456 C 285.250 0.269, 275.800 0.534, 272.500 1.045 M 274 18.528 C 243.291 23.348, 215.585 42.855, 200.518 70.266 C 198.583 73.786, 197.300 76.967, 197.667 77.333 C 198.033 77.700, 199.431 78, 200.772 78 C 208.780 78, 232.189 87.783, 238.750 93.871 C 242.913 97.734, 243.234 102.857, 239.545 106.545 C 236.009 110.082, 232.152 109.701, 225.059 105.116 C 197.045 87.010, 160.212 91.553, 137.750 115.885 C 134.588 119.311, 132 122.473, 132 122.912 C 132 123.351, 135.211 124.896, 139.135 126.344 C 148.480 129.795, 158.359 135.370, 160.939 138.650 C 163.733 142.202, 163.578 146.513, 160.545 149.545 C 156.927 153.164, 153.291 152.659, 142.775 147.077 C 127.364 138.897, 121.377 137.495, 102 137.528 C 85.931 137.556, 85.245 137.644, 75.756 140.903 C 58.948 146.674, 44.099 157.341, 34.222 170.737 C 2.473 213.801, 16.814 274.194, 64.500 298.245 C 67.250 299.632, 73.325 302.009, 78 303.527 C 85.723 306.035, 88.228 306.331, 105.404 306.767 C 123.104 307.217, 124.266 307.136, 123.638 305.498 C 119.905 295.770, 118.749 265.916, 121.488 249.980 C 129.997 200.480, 165.488 159.349, 213.349 143.521 C 227.311 138.904, 239.765 137, 256 137 C 272.233 137, 284.688 138.904, 298.644 143.519 C 346.503 159.346, 382.004 200.486, 390.512 249.980 C 393.233 265.813, 392.097 295.767, 388.410 305.375 C 387.851 306.831, 389.360 307, 402.935 307 C 420.044 307, 429.329 305.503, 440.954 300.869 C 466.121 290.836, 485.022 269.257, 492.078 242.500 C 494.880 231.871, 495.122 214.637, 492.621 203.689 C 486.672 177.648, 470.362 157.016, 446.612 145.487 C 432.744 138.756, 422.530 136.681, 406 137.236 C 394.155 137.633, 391.336 138.082, 383 140.895 C 377.775 142.659, 370.496 145.879, 366.825 148.051 C 363.154 150.223, 358.851 152, 357.264 152 C 351.521 152, 347.354 145.031, 350.130 140.069 C 353.101 134.758, 371.007 125.667, 385.250 122.238 L 392 120.613 392 114.917 C 392 107.716, 389.664 95.303, 386.632 86.390 C 376.077 55.362, 350.862 31.239, 318.964 21.651 C 303.473 16.994, 289.816 16.045, 274 18.528 M 235.235 155.497 C 210.331 160.012, 188 171.958, 170.481 190.140 C 147.962 213.510, 137 240.615, 137 272.925 C 137 292.483, 140.408 307.685, 148.561 324.500 C 154.951 337.677, 153.966 337.148, 160.668 331.004 C 173.747 319.011, 193.364 308.624, 211.596 304.036 L 215.693 303.006 207.592 294.753 C 194.765 281.685, 189.232 269.119, 188.283 250.903 C 187.621 238.197, 189.393 228.775, 194.396 218.398 C 202.889 200.783, 216.945 188.448, 235.500 182.327 C 246.703 178.631, 263.923 178.421, 275 181.845 C 293.810 187.659, 308.174 199.766, 316.962 217.213 C 322.489 228.186, 324.403 237.731, 323.717 250.903 C 322.774 269.010, 317.263 281.576, 304.477 294.767 L 296.454 303.045 300.477 304.057 C 307.495 305.822, 319.306 310.136, 325.071 313.041 C 333.059 317.066, 347.912 327.222, 351.946 331.416 C 353.842 333.387, 355.975 335, 356.686 335 C 358.469 335, 366.199 319.282, 369.389 309.171 C 380.321 274.522, 375.213 237.084, 355.513 207.477 C 337.326 180.142, 308.194 161.055, 276.129 155.463 C 265.916 153.682, 245.153 153.700, 235.235 155.497 M 243.032 198.065 C 220.594 203.940, 205 224.209, 205 247.500 C 205 262.011, 210.313 274.280, 220.939 284.304 C 237.203 299.647, 258.600 302.902, 278.549 293.070 C 296.042 284.447, 307 266.889, 307 247.482 C 307 233.089, 302.293 222.060, 291.609 211.420 C 278.047 197.915, 261.248 193.296, 243.032 198.065 M 0.395 221.500 C 0.396 229.200, 0.553 232.218, 0.743 228.206 C 0.934 224.195, 0.932 217.895, 0.741 214.206 C 0.549 210.518, 0.393 213.800, 0.395 221.500 M 232.736 317.028 C 207.022 321.060, 186.398 330.212, 171.391 344.251 L 164.888 350.334 171.194 356.787 C 202.748 389.077, 250.703 400.654, 293.710 386.362 C 310.635 380.737, 328.155 369.732, 340.824 356.768 L 347.148 350.297 340.069 343.836 C 327.076 331.978, 309.365 323.278, 289.443 318.969 C 281.559 317.264, 275.254 316.747, 259 316.471 C 247.725 316.280, 235.906 316.531, 232.736 317.028 M 113.455 446.455 C 111.007 448.902, 111 448.970, 111.032 469.205 C 111.065 490.446, 111.260 491.481, 115.684 493.837 C 117.315 494.705, 153.023 495, 256.511 495 L 395.154 495 398.077 492.077 L 401 489.154 401 469.031 C 401 449, 400.989 448.898, 398.545 446.455 L 396.091 444 256 444 L 115.909 444 113.455 446.455 M 139.455 463.455 C 137.039 465.870, 136.286 469.976, 137.621 473.455 C 138.674 476.199, 143.590 478, 150.027 478 C 155.465 478, 156.482 477.672, 159.077 475.077 C 162.750 471.404, 162.920 467.285, 159.548 463.646 C 157.311 461.232, 156.429 461, 149.502 461 C 142.774 461, 141.630 461.279, 139.455 463.455 M 182.356 463.370 C 178.792 466.436, 178.545 471.990, 181.828 475.272 C 183.758 477.202, 185.118 477.500, 192 477.500 C 201.496 477.500, 204.400 475.601, 204.400 469.393 C 204.400 463.535, 200.655 461, 192 461 C 186.194 461, 184.678 461.373, 182.356 463.370 M 224.455 463.455 C 221.014 466.895, 221.193 471.347, 224.923 475.077 C 227.518 477.672, 228.535 478, 233.973 478 C 240.410 478, 245.326 476.199, 246.379 473.455 C 247.714 469.976, 246.961 465.870, 244.545 463.455 C 242.371 461.280, 241.226 461, 234.500 461 C 227.774 461, 226.629 461.280, 224.455 463.455 M 267.455 463.455 C 265.039 465.870, 264.286 469.976, 265.621 473.455 C 266.674 476.199, 271.590 478, 278.027 478 C 283.465 478, 284.482 477.672, 287.077 475.077 C 290.750 471.404, 290.920 467.285, 287.548 463.646 C 285.311 461.232, 284.429 461, 277.502 461 C 270.774 461, 269.630 461.279, 267.455 463.455 M 310.356 463.370 C 306.792 466.436, 306.545 471.990, 309.828 475.272 C 311.758 477.202, 313.118 477.500, 320 477.500 C 329.496 477.500, 332.400 475.601, 332.400 469.393 C 332.400 463.535, 328.655 461, 320 461 C 314.194 461, 312.678 461.373, 310.356 463.370 M 352.455 463.455 C 349.014 466.895, 349.193 471.347, 352.923 475.077 C 355.518 477.672, 356.535 478, 361.973 478 C 368.410 478, 373.326 476.199, 374.379 473.455 C 375.714 469.976, 374.961 465.870, 372.545 463.455 C 370.371 461.280, 369.226 461, 362.500 461 C 355.774 461, 354.629 461.280, 352.455 463.455" stroke="none" fill="#050606" fill-rule="evenodd"/><path d="M 252.768 196.725 C 254.565 196.947, 257.265 196.943, 258.768 196.715 C 260.271 196.486, 258.800 196.304, 255.500 196.310 C 252.200 196.315, 250.971 196.502, 252.768 196.725 M 266.500 199.702 C 276.318 206.939, 285.245 220.359, 288.415 232.644 C 290.260 239.796, 290.480 252.617, 288.887 260.201 C 286.298 272.530, 277.828 286.119, 267.737 294.133 L 262.500 298.292 266.500 297.614 C 268.700 297.240, 274.122 295.173, 278.549 293.019 C 295.991 284.532, 307 266.918, 307 247.500 C 307 228.082, 295.991 210.468, 278.549 201.981 C 274.122 199.827, 268.700 197.770, 266.500 197.409 L 262.500 196.753 266.500 199.702 M 253.250 298.716 C 254.762 298.945, 257.238 298.945, 258.750 298.716 C 260.262 298.487, 259.025 298.300, 256 298.300 C 252.975 298.300, 251.738 298.487, 253.250 298.716 M 254.250 392.689 C 255.213 392.941, 256.788 392.941, 257.750 392.689 C 258.712 392.438, 257.925 392.232, 256 392.232 C 254.075 392.232, 253.287 392.438, 254.250 392.689 M 147.264 460.718 C 148.784 460.947, 151.034 460.941, 152.264 460.704 C 153.494 460.467, 152.250 460.279, 149.500 460.286 C 146.750 460.294, 145.744 460.488, 147.264 460.718 M 189.750 460.706 C 190.988 460.944, 193.012 460.944, 194.250 460.706 C 195.488 460.467, 194.475 460.272, 192 460.272 C 189.525 460.272, 188.512 460.467, 189.750 460.706 M 232.264 460.718 C 233.784 460.947, 236.034 460.941, 237.264 460.704 C 238.494 460.467, 237.250 460.279, 234.500 460.286 C 231.750 460.294, 230.744 460.488, 232.264 460.718 M 275.264 460.718 C 276.784 460.947, 279.034 460.941, 280.264 460.704 C 281.494 460.467, 280.250 460.279, 277.500 460.286 C 274.750 460.294, 273.744 460.488, 275.264 460.718 M 317.750 460.706 C 318.988 460.944, 321.012 460.944, 322.250 460.706 C 323.488 460.467, 322.475 460.272, 320 460.272 C 317.525 460.272, 316.512 460.467, 317.750 460.706 M 360.264 460.718 C 361.784 460.947, 364.034 460.941, 365.264 460.704 C 366.494 460.467, 365.250 460.279, 362.500 460.286 C 359.750 460.294, 358.744 460.488, 360.264 460.718" stroke="none" fill="#ed9c84" fill-rule="evenodd"/></svg>